<?xml version="1.0" encoding="UTF-8"?>
<svg width="138px" height="60px" viewBox="0 0 138 60" version="1.1" xmlns="http://www.w3.org/2000/svg" xmlns:xlink="http://www.w3.org/1999/xlink">
    <!-- Generator: sketchtool 52.1 (67048) - http://www.bohemiancoding.com/sketch -->
    <title>A6CAAEC0-5204-4458-8766-5791BD05F779</title>
    <desc>Created with sketchtool.</desc>
    <g id="Contact-Sheet" stroke="none" stroke-width="1" fill="none" fill-rule="evenodd">
        <g id="Desktop/Symbolls-and-colours" transform="translate(-362.000000, -17.000000)" fill-rule="nonzero">
            <g id="23ES_Logo-01" transform="translate(361.907210, 17.000000)">
                <polygon id="Rectangle-path" fill="#86D0F4" points="0.144218068 0.274242849 137.528401 0.274242849 137.528401 59.1494634 0.144218068 59.1494634"></polygon>
                <path d="M36.1610823,45.5618739 L36.1610823,47.4862406 L13.822825,47.4862406 C14.2128993,40.9850016 19.1668435,37.3963177 24.0687777,34.0026709 C28.9707119,30.6090241 33.7816288,27.3974121 33.7816288,21.5462969 C33.7592111,19.4042827 32.8670799,17.3633892 31.3100621,15.8921914 C29.7530444,14.4209935 27.664901,13.6458795 25.5250552,13.7448101 C19.4138905,13.7448101 16.5013355,18.4387047 16.5013355,24.4328471 L14.6029737,24.4328471 C14.993048,16.1112611 18.6337419,12.0804929 25.1869908,12.0804929 C30.8690737,12.0804929 35.5889732,15.2010876 35.5889732,21.6113093 C35.5889732,27.722474 30.9730935,31.5452026 26.1751791,34.8868394 C21.3772647,38.2284763 16.462328,41.2970611 16.1242636,45.5748764 L36.1610823,45.5618739 Z" id="Shape" fill="#1D1D1B"></path>
                <path d="M40.9719991,35.9790476 C40.7249521,42.4802866 44.5606831,46.38103 50.7368602,46.38103 C55.6908043,46.38103 60.3456914,43.3644551 60.3456914,37.812397 C60.3456914,31.1421257 54.6115986,29.3737887 49.0855454,29.789868 L49.0855454,28.1515558 C53.9874797,28.3595954 59.5655427,26.851308 59.5655427,20.8441631 C59.5655427,15.9422289 54.8066358,13.7318076 50.7368602,13.7318076 C44.8597401,13.7318076 42.0382023,17.9186056 41.7911553,23.6657009 L39.9578059,23.6657009 C39.9578059,16.8003924 44.0795914,12.0674904 50.7368602,12.0674904 C56.1198861,12.0674904 61.4118946,14.667986 61.4118946,20.8441631 C61.6106399,24.7754648 58.8016824,28.2192468 54.9106556,28.8146822 L54.9106556,28.9056995 C59.4745254,29.4518036 62.2440532,33.1445074 62.2440532,37.8384019 C62.2440532,44.6907079 57.043062,48.0713522 50.7888701,48.0713522 C43.4034625,48.0713522 38.8395927,43.7285245 39.1776572,35.9660451 L40.9719991,35.9790476 Z" id="Shape" fill="#1D1D1B"></path>
                <path d="M69.3434062,31.5061951 C69.3434062,37.6043573 72.4770034,44.9637599 80.1874729,44.9637599 C86.064593,44.9637599 89.2892076,41.3880784 90.5894554,36.2130922 L94.6072211,36.2130922 C92.890894,44.014579 88.5480663,48.474429 80.3044952,48.474429 C69.9025128,48.474429 65.4556653,40.1268381 65.4556653,30.387982 C65.312638,21.3642622 69.7334806,12.2885326 80.1874729,12.2885326 C90.6414653,12.2885326 94.9972954,21.8973638 94.6722335,31.5061951 L69.3434062,31.5061951 Z M90.6544678,27.995526 C90.4594306,21.7023267 86.7537243,15.7992016 80.2524853,15.7992016 C73.7512463,15.7992016 70.0455401,21.7673391 69.4084186,27.995526 L90.6544678,27.995526 Z" id="Shape" fill="#FFFFFF"></path>
                <path d="M118.206719,23.288629 C118.024684,18.0876378 114.188953,15.7992016 109.599078,15.7992016 C106.023397,15.7992016 101.797591,17.2554792 101.797591,21.7023267 C101.797591,25.4080329 105.88037,26.7342857 108.623892,27.4624244 L113.980913,28.7626723 C118.583791,29.490811 123.3557,32.2733413 123.3557,38.2414787 C123.3557,45.6658937 116.282352,48.5134364 110.158185,48.5134364 C102.499725,48.5134364 97.2727291,44.8077302 96.6356077,36.4471368 L100.653373,36.4471368 C100.978435,42.0902123 104.996201,45.0027673 110.353222,45.0027673 C114.110938,45.0027673 119.350937,43.2864402 119.350937,38.5015283 C119.350937,34.52277 115.775255,33.1965173 112.134561,32.2603388 L106.93357,31.0641109 C101.732579,29.6208358 97.7408183,27.7614814 97.7408183,21.9623762 C97.8188332,14.9410381 104.320072,12.2885326 110.171187,12.2885326 C116.672426,12.2885326 121.977437,15.864214 122.224484,23.288629 L118.206719,23.288629 Z" id="Shape" fill="#FFFFFF"></path>
            </g>
        </g>
    </g>
</svg>